<svg width="31" height="35" viewBox="0 0 31 35" fill="none" xmlns="http://www.w3.org/2000/svg">
<path d="M-30.3473 31.6366C-29.641 35.6161 -28.9905 39.6051 -28.2842 43.5847C-25.998 46.9057 -23.6747 50.1891 -21.3979 53.5101C-18.1174 55.8151 -14.874 58.1765 -11.5935 60.4814C-7.66246 61.1964 -3.72212 61.8456 0.208923 62.57C4.13997 61.855 8.08031 61.1964 12.0114 60.4814C15.2919 58.1671 18.5352 55.8151 21.8157 53.5101C24.0926 50.1891 26.4252 46.9057 28.702 43.5847C29.4083 39.6051 30.0496 35.6161 30.7651 31.6366C30.0589 27.657 29.4083 23.668 28.702 19.6884C26.4159 16.3674 24.0926 13.084 21.8157 9.763C18.5352 7.45804 15.2919 5.09664 12.0114 2.79168C8.08031 2.07668 4.13997 1.42752 0.208923 0.70311C-3.72212 1.41812 -7.66246 2.07668 -11.5935 2.79168C-14.874 5.10605 -18.1174 7.45804 -21.3979 9.763C-23.6747 13.084 -26.0073 16.3674 -28.2842 19.6884C-28.9905 23.668 -29.6317 27.657 -30.3473 31.6366ZM-8.96352 35.475C-9.15868 34.1955 -9.34454 32.916 -9.52111 31.6271C-9.34454 30.3477 -9.15868 29.0588 -8.96352 27.7793C-8.21076 26.735 -7.44872 25.6907 -6.67738 24.6558C-5.65512 23.875 -4.63286 23.1035 -3.59202 22.3415C-2.32813 22.1439 -1.06425 21.9557 0.208923 21.777C1.47281 21.9557 2.74598 22.1439 4.00986 22.3415C5.04141 23.1035 6.07297 23.875 7.09522 24.6558C7.86657 25.6907 8.62861 26.7256 9.38136 27.7793C9.57652 29.0588 9.76239 30.3383 9.93896 31.6271C9.76239 32.9066 9.57652 34.1955 9.38136 35.475C8.62861 36.5193 7.86657 37.5636 7.09522 38.5985C6.07297 39.3793 5.0507 40.1508 4.00986 40.9128C2.74598 41.1104 1.4821 41.2986 0.208923 41.4773C-1.05496 41.2986 -2.32813 41.1104 -3.59202 40.9128C-4.62357 40.1508 -5.65512 39.3793 -6.67738 38.5985C-7.43943 37.5636 -8.20147 36.5193 -8.96352 35.475ZM-18.3869 32.4174C-18.4055 32.2857 -18.3962 32.2951 -18.3776 32.4551C-18.3497 32.6526 -18.3497 32.6338 -18.3869 32.3986C-18.3869 32.408 -18.3869 32.408 -18.3869 32.4174ZM-12.3927 45.4945C-12.495 45.4193 -12.4857 45.4193 -12.3556 45.5227C-12.1976 45.645 -12.2162 45.6356 -12.402 45.4851L-12.3927 45.4945ZM0.980263 50.4525C0.850157 50.4713 0.859451 50.4619 1.01744 50.4431C1.21259 50.4149 1.19401 50.4149 0.961676 50.4525C0.970968 50.4525 0.970968 50.4525 0.980263 50.4525ZM13.8979 44.3938C13.8235 44.4973 13.8235 44.4879 13.9258 44.3562C14.0466 44.1962 14.0373 44.215 13.8886 44.4032L13.8979 44.3938ZM18.7954 30.8557C18.814 30.9874 18.814 30.978 18.7861 30.8181C18.7583 30.6205 18.7583 30.6393 18.7954 30.8745C18.7954 30.8651 18.7954 30.8557 18.7954 30.8557ZM12.8106 17.7786C12.9128 17.8539 12.9035 17.8539 12.7734 17.7504C12.6154 17.6281 12.634 17.6375 12.8199 17.788C12.8199 17.7786 12.8106 17.7786 12.8106 17.7786ZM-0.562418 12.8112C-0.432312 12.7924 -0.441605 12.8018 -0.608883 12.8206C-0.804041 12.8488 -0.785458 12.8488 -0.553125 12.8112H-0.562418ZM-13.48 18.8793C-13.4057 18.7758 -13.4057 18.7853 -13.5079 18.917C-13.6287 19.0769 -13.6194 19.0581 -13.4707 18.8699C-13.48 18.8699 -13.48 18.8793 -13.48 18.8793ZM-18.3869 30.8745C-18.359 30.6393 -18.3497 30.6111 -18.3776 30.8181C-18.3962 30.978 -18.3962 30.9874 -18.3869 30.8557C-18.3869 30.8557 -18.3869 30.8651 -18.3869 30.8745ZM-13.4707 44.4032C-13.6194 44.215 -13.6287 44.1962 -13.5079 44.3562C-13.4057 44.4879 -13.4057 44.4973 -13.48 44.3938C-13.48 44.3938 -13.48 44.4032 -13.4707 44.4032ZM-0.543831 50.4525C-0.776161 50.4243 -0.804043 50.4149 -0.59959 50.4431C-0.441607 50.4619 -0.432314 50.4619 -0.553125 50.4525C-0.562418 50.4525 -0.553123 50.4525 -0.543831 50.4525ZM12.8199 45.4851C12.634 45.6356 12.6154 45.645 12.7734 45.5227C12.9035 45.4193 12.9128 45.4193 12.8106 45.4945L12.8199 45.4851ZM18.7954 32.3986C18.7675 32.6338 18.7583 32.662 18.7861 32.4551C18.8047 32.2951 18.8047 32.2857 18.7954 32.4174C18.7954 32.408 18.7954 32.408 18.7954 32.3986ZM13.8886 18.8699C14.0373 19.0581 14.0466 19.0769 13.9258 18.917C13.8235 18.7853 13.8235 18.7758 13.8979 18.8793L13.8886 18.8699ZM0.961676 12.8112C1.19401 12.8394 1.22189 12.8488 1.01744 12.8206C0.859451 12.8018 0.850157 12.8018 0.980263 12.8112C0.970968 12.8112 0.970968 12.8112 0.961676 12.8112ZM-12.402 17.788C-12.2162 17.6375 -12.1976 17.6281 -12.3556 17.7504C-12.4857 17.8539 -12.495 17.8539 -12.3927 17.7786C-12.3927 17.7786 -12.402 17.7786 -12.402 17.788ZM-18.2939 31.6366C-18.3404 31.7589 -18.3683 31.8906 -18.3869 32.0317C-18.4148 32.1728 -18.4055 32.3139 -18.3776 32.4551C-18.3776 32.5679 -18.3497 32.6714 -18.3032 32.7749C-18.1917 33.0195 -18.1174 33.2077 -17.9222 33.3959C-17.4854 33.8286 -16.9185 33.8663 -16.3424 33.8192C-14.9019 33.6781 -13.5451 33.1512 -12.1976 32.662C-12.0396 33.8098 -11.8723 34.9576 -11.705 36.1054C-15.1714 36.6416 -20.4035 37.0838 -20.9053 32.7467C-20.9518 32.3516 -20.9518 31.9847 -20.9053 31.646C-20.9518 31.3073 -20.9518 30.9404 -20.9053 30.5452C-20.4035 26.2082 -15.1714 26.6503 -11.705 27.1866C-11.8816 28.3344 -12.0396 29.4821 -12.1976 30.6299C-13.5544 30.1407 -14.9019 29.6138 -16.3424 29.4727C-16.9185 29.4163 -17.4854 29.4633 -17.9222 29.8961C-18.1174 30.0842 -18.1917 30.2724 -18.3032 30.517C-18.3497 30.6205 -18.3776 30.724 -18.3776 30.8369C-18.4055 30.978 -18.4148 31.1191 -18.3869 31.2602C-18.3683 31.3825 -18.3404 31.5143 -18.2939 31.6366ZM-12.876 18.3901C-12.9968 18.4466 -13.1083 18.5124 -13.2198 18.6065C-13.3406 18.6818 -13.4336 18.7853 -13.5079 18.9076C-13.5823 18.9922 -13.6473 19.0769 -13.6752 19.1804C-13.7588 19.4344 -13.8425 19.6132 -13.8425 19.8954C-13.8332 20.5069 -13.4614 20.9491 -13.0154 21.3254C-11.9002 22.2568 -10.5713 22.8495 -9.27949 23.4798C-9.96719 24.4018 -10.6549 25.3332 -11.3333 26.2646C-14.1584 24.1666 -18.1638 20.7327 -15.4967 17.2988C-15.255 16.9883 -14.9948 16.7343 -14.7253 16.5273C-14.5209 16.2545 -14.27 15.9911 -13.9633 15.7465C-10.5805 13.037 -7.18851 17.1012 -5.10682 19.9613C-6.02685 20.648 -6.94688 21.3348 -7.85762 22.0404C-8.47097 20.7233 -9.05645 19.3874 -9.98577 18.2584C-10.3575 17.8068 -10.7943 17.4305 -11.3983 17.4211C-11.6679 17.4211 -11.8537 17.4964 -12.1046 17.5904C-12.2069 17.6281 -12.2998 17.6845 -12.3741 17.7598C-12.495 17.835 -12.5879 17.9291 -12.6715 18.0514C-12.7552 18.1549 -12.8202 18.2678 -12.876 18.3901ZM0.208923 12.9053C0.0881119 12.8582 -0.041996 12.83 -0.181395 12.8112C-0.320793 12.783 -0.460192 12.7924 -0.59959 12.8206C-0.711111 12.8206 -0.813335 12.8488 -0.915562 12.8959C-1.15719 13.0088 -1.34305 13.084 -1.52892 13.2816C-1.95641 13.7238 -1.99358 14.2976 -1.94711 14.8809C-1.80771 16.3392 -1.28729 17.7127 -0.804041 19.0769C-1.93782 19.2368 -3.07159 19.4062 -4.20537 19.5755C-4.73509 16.0663 -5.17187 10.7697 -0.88768 10.2616C-0.497364 10.2146 -0.134928 10.2146 0.199629 10.2616C0.534185 10.2146 0.896626 10.2146 1.28694 10.2616C5.57113 10.7697 5.13435 16.0663 4.60463 19.5755C3.47086 19.3968 2.33708 19.2368 1.2033 19.0769C1.68655 17.7033 2.20697 16.3392 2.34637 14.8809C2.40213 14.2976 2.35566 13.7238 1.92817 13.2816C1.74231 13.084 1.55644 13.0088 1.31482 12.8959C1.21259 12.8488 1.11037 12.8206 0.99885 12.8206C0.859451 12.7924 0.720051 12.783 0.580652 12.8112C0.459841 12.83 0.329737 12.8582 0.208923 12.9053ZM13.2938 18.3901C13.2381 18.2678 13.173 18.1549 13.0801 18.042C13.0057 17.9197 12.9035 17.8256 12.7827 17.7504C12.6991 17.6751 12.6154 17.6093 12.5132 17.581C12.2623 17.4964 12.0857 17.4117 11.8069 17.4117C11.2028 17.4211 10.7661 17.7974 10.3943 18.249C9.4743 19.378 8.88882 20.7233 8.26617 22.031C7.35543 21.3348 6.4354 20.6386 5.51537 19.9518C7.58776 17.0918 10.9798 13.037 14.3718 15.7371C14.6785 15.9817 14.9294 16.2451 15.1339 16.5179C15.4034 16.7249 15.6636 16.9789 15.9052 17.2894C18.5817 20.7139 14.567 24.1478 11.7419 26.2552C11.0634 25.3238 10.3757 24.3924 9.68804 23.4704C10.9891 22.8495 12.3087 22.2568 13.4239 21.316C13.87 20.9397 14.2417 20.5069 14.251 19.886C14.251 19.6132 14.1767 19.425 14.0837 19.171C14.0466 19.0675 13.9908 18.9734 13.9165 18.8981C13.8421 18.7758 13.7399 18.6818 13.6284 18.5971C13.5169 18.5124 13.4146 18.4466 13.2938 18.3901ZM18.7118 31.6366C18.7583 31.5143 18.7861 31.3825 18.8047 31.2414C18.8326 31.1003 18.8233 30.9592 18.7954 30.8181C18.7954 30.7052 18.7675 30.6017 18.7211 30.4982C18.6096 30.2536 18.5352 30.0654 18.3401 29.8773C17.9033 29.4445 17.3364 29.4069 16.7602 29.4539C15.3198 29.595 13.9629 30.1219 12.6154 30.6111C12.4574 29.4633 12.2902 28.3155 12.1229 27.1678C15.5893 26.6315 20.8214 26.1893 21.3232 30.5264C21.3697 30.9216 21.3697 31.2885 21.3232 31.6271C21.3697 31.9658 21.3697 32.3328 21.3232 32.7279C20.8214 37.065 15.5893 36.6228 12.1229 36.0865C12.2994 34.9388 12.4574 33.791 12.6154 32.6432C13.9722 33.1324 15.3198 33.6593 16.7602 33.8004C17.3364 33.8568 17.9033 33.8098 18.3401 33.377C18.5352 33.1889 18.6096 33.0007 18.7211 32.7561C18.7675 32.6526 18.7954 32.5491 18.7954 32.4362C18.8233 32.2951 18.8326 32.154 18.8047 32.0129C18.7861 31.8906 18.7583 31.7589 18.7118 31.6366ZM13.2938 44.883C13.4146 44.8265 13.5262 44.7607 13.6377 44.6666C13.7585 44.5914 13.8514 44.4879 13.9258 44.3656C14.0001 44.2809 14.0652 44.1962 14.093 44.0927C14.1767 43.8387 14.2603 43.66 14.2603 43.3777C14.251 42.7662 13.8793 42.324 13.4332 41.9477C12.318 41.0163 10.9891 40.4236 9.69733 39.7933C10.385 38.8713 11.0727 37.9399 11.7511 37.0085C14.5763 39.1065 18.5817 42.5404 15.9145 45.9743C15.6729 46.2848 15.4127 46.5388 15.1432 46.7458C14.9387 47.0186 14.6878 47.282 14.3811 47.5266C10.9984 50.2361 7.60635 46.1719 5.52466 43.3119C6.44469 42.6251 7.36473 41.9383 8.27546 41.2327C8.88882 42.5498 9.47429 43.8858 10.4036 45.0147C10.7753 45.4663 11.2121 45.8426 11.8162 45.852C12.0857 45.852 12.2716 45.7768 12.5225 45.6827C12.6247 45.645 12.7176 45.5886 12.792 45.5133C12.9128 45.4381 13.0057 45.3346 13.0894 45.2217C13.1637 45.1088 13.2381 45.0053 13.2938 44.883ZM0.208923 50.3679C0.329737 50.4149 0.459841 50.4431 0.599239 50.4619C0.738638 50.4902 0.878036 50.4808 1.01744 50.4525C1.12896 50.4525 1.23118 50.4243 1.33341 50.3773C1.57503 50.2644 1.76089 50.1891 1.94676 49.9915C2.37425 49.5494 2.41143 48.9755 2.36496 48.3922C2.22556 46.9339 1.70514 45.5604 1.22189 44.1962C2.35566 44.0363 3.48944 43.8669 4.62322 43.6976C5.15294 47.2068 5.58971 52.5035 1.30552 53.0115C0.915209 53.0585 0.552773 53.0585 0.218216 53.0115C-0.116341 53.0585 -0.478781 53.0585 -0.869097 53.0115C-5.15329 52.5035 -4.7165 47.2068 -4.18679 43.6976C-3.05301 43.8763 -1.91923 44.0363 -0.785458 44.1962C-1.26871 45.5698 -1.78913 46.9339 -1.92853 48.3922C-1.98429 48.9755 -1.93782 49.5494 -1.51033 49.9915C-1.32446 50.1891 -1.1386 50.2644 -0.896975 50.3773C-0.794748 50.4243 -0.692524 50.4525 -0.581005 50.4525C-0.441605 50.4808 -0.302206 50.4902 -0.162807 50.4619C-0.0419941 50.4431 0.0881119 50.4149 0.208923 50.3679ZM-12.876 44.883C-12.8202 45.0053 -12.7552 45.1182 -12.6622 45.2311C-12.5879 45.3534 -12.4857 45.4475 -12.3648 45.5227C-12.2812 45.598 -12.1976 45.6639 -12.0953 45.6921C-11.8444 45.7768 -11.6679 45.8614 -11.3891 45.8614C-10.785 45.852 -10.3482 45.4757 -9.97648 45.0241C-9.05645 43.8952 -8.47098 42.5498 -7.84833 41.2421C-6.93759 41.9383 -6.01756 42.6345 -5.09752 43.3213C-7.16992 46.1813 -10.562 50.2361 -13.954 47.536C-14.2607 47.2914 -14.5116 47.028 -14.716 46.7552C-14.9855 46.5482 -15.2458 46.2942 -15.4874 45.9837C-18.1638 42.5592 -14.1492 39.1253 -11.324 37.0179C-10.6456 37.9493 -9.9579 38.8807 -9.27019 39.8027C-10.5712 40.4236 -11.8909 41.0163 -13.0061 41.9571C-13.4522 42.3334 -13.8239 42.7756 -13.8332 43.3871C-13.8332 43.66 -13.7588 43.8481 -13.6659 44.1021C-13.6287 44.2056 -13.573 44.2997 -13.4986 44.375C-13.4243 44.4973 -13.3221 44.5914 -13.2105 44.676C-13.1083 44.7513 -12.9968 44.8265 -12.876 44.883ZM-24.3346 31.6366C-24.3996 32.201 -24.381 32.8126 -24.2788 33.4805C-23.619 37.526 -20.1712 38.6079 -16.5282 38.6549C-19.0746 41.2986 -20.7567 44.5255 -18.3962 47.8653C-18.0059 48.411 -17.5877 48.8532 -17.1509 49.2107C-16.807 49.6528 -16.3609 50.0762 -15.8219 50.4713C-12.5228 52.861 -9.33525 51.1581 -6.72384 48.5803C-6.67738 52.2683 -5.60865 55.7586 -1.61256 56.4266C-0.952736 56.5395 -0.348671 56.5489 0.208923 56.483C0.76652 56.5489 1.37058 56.5301 2.0304 56.4266C6.0265 55.7586 7.09522 52.2683 7.14169 48.5803C9.75309 51.1581 12.9407 52.861 16.2398 50.4713C16.7788 50.0762 17.2156 49.6528 17.5687 49.2107C18.0055 48.8626 18.4237 48.411 18.814 47.8653C21.1745 44.5255 19.4924 41.2986 16.9461 38.6549C20.589 38.6079 24.0368 37.526 24.6966 33.4805C24.8082 32.8126 24.8175 32.201 24.7524 31.6366C24.8175 31.0721 24.7989 30.4606 24.6966 29.7926C24.0368 25.7472 20.589 24.6652 16.9461 24.6182C19.4924 21.9746 21.1745 18.7476 18.814 15.4078C18.4237 14.8621 18.0055 14.4199 17.5687 14.0624C17.2249 13.6203 16.7788 13.1969 16.2398 12.8018C12.9407 10.4121 9.75309 12.115 7.14169 14.6928C7.09522 11.0049 6.0265 7.51449 2.0304 6.84652C1.37058 6.73363 0.76652 6.72422 0.208923 6.79008C-0.348671 6.72422 -0.952736 6.74303 -1.61256 6.84652C-5.60865 7.51449 -6.67738 11.0049 -6.72384 14.6928C-9.33525 12.115 -12.5228 10.4121 -15.8219 12.8018C-16.3609 13.1969 -16.7977 13.6203 -17.1509 14.0624C-17.5877 14.4105 -18.0059 14.8621 -18.3962 15.4078C-20.7567 18.7476 -19.0746 21.9746 -16.5282 24.6182C-20.1712 24.6652 -23.619 25.7472 -24.2788 29.7926C-24.381 30.4606 -24.3996 31.0721 -24.3346 31.6366ZM-25.8958 42.578C-26.5371 38.9372 -27.1318 35.2775 -27.7731 31.6366C-27.1318 27.9863 -26.5371 24.336 -25.8958 20.6951C-23.8048 17.6563 -21.6767 14.6457 -19.5857 11.607C-16.584 9.49017 -13.6101 7.33574 -10.6084 5.21894C-7.01193 4.56979 -3.39686 3.96768 0.199629 3.31853C3.80541 3.96768 7.41119 4.56979 11.0077 5.21894C14.0094 7.33574 16.9832 9.49017 19.985 11.607C22.0759 14.6457 24.2041 17.6563 26.2951 20.6951C26.9363 24.336 27.5311 27.9957 28.1723 31.6366C27.5311 35.2775 26.9363 38.9372 26.2951 42.578C24.2041 45.6168 22.0759 48.6274 19.985 51.6662C16.9832 53.783 14.0094 55.9374 11.0077 58.0542C7.41119 58.7033 3.79612 59.3054 0.199629 59.9546C-3.40615 59.3054 -7.01193 58.7033 -10.6084 58.0542C-13.6101 55.9374 -16.584 53.783 -19.5857 51.6662C-21.6674 48.6274 -23.8048 45.6168 -25.8958 42.578Z" fill="white" fill-opacity="0.03"/>
</svg>
